<svg version="1.1" xmlns="http://www.w3.org/2000/svg" xmlns:xlink="http://www.w3.org/1999/xlink" x="0px" y="0px"
	 viewBox="0 0 500 500" style="enable-background:new 0 0 500 500;" xml:space="preserve">
<g id="OBJECTS">
	<path style="fill:#FFF0E7;" d="M430.093,410.83c0,4.022-86.49,7.283-193.18,7.283s-193.18-3.261-193.18-7.283
		c0-4.022,86.49-7.283,193.18-7.283S430.093,406.808,430.093,410.83z"/>
	<g>
		<g>
			<g>
				<polygon style="fill:#C99D8D;" points="271.093,272.747 303.189,404.582 294.024,404.582 262.048,272.747 				"/>
			</g>
			<g>
				<polygon style="fill:#C99D8D;" points="228.907,272.747 237.952,272.747 205.977,404.582 196.811,404.582 				"/>
			</g>
		</g>

			<rect x="173.125" y="183.307" transform="matrix(-1 -1.224647e-16 1.224647e-16 -1 500 475.76)" style="fill:#C99D8D;" width="153.75" height="109.146"/>

			<rect x="178.099" y="188.132" transform="matrix(-1 -1.224647e-16 1.224647e-16 -1 500 475.76)" style="fill:#FDE4D9;" width="143.802" height="99.496"/>
	</g>
	<g>
		<path style="fill:#FFC253;" d="M334.939,155.546l-1.402,4.092l-1.367-4.104c-1.759-5.284-5.442-9.713-10.317-12.406l0,0l0,0
			c4.898-2.651,8.618-7.048,10.424-12.317l1.402-4.092l1.367,4.104c1.759,5.284,5.442,9.713,10.317,12.406l0,0l0,0
			C340.465,145.881,336.744,150.278,334.939,155.546z"/>
		<path style="fill:#FFC253;" d="M355.717,119.373l-1.094,3.193l-1.066-3.202c-1.373-4.122-4.246-7.578-8.05-9.679l0,0l0,0
			c3.821-2.068,6.725-5.499,8.133-9.609l1.094-3.192l1.066,3.202c1.373,4.123,4.246,7.578,8.049,9.679l0,0l0,0
			C360.028,111.833,357.125,115.263,355.717,119.373z"/>
	</g>
	<g>
		<path style="fill:#FACC07;" d="M121.092,121.784L121.092,121.784c-5.319,0-9.63-4.311-9.63-9.63v-9.63h19.26v9.63
			C130.723,117.473,126.411,121.784,121.092,121.784z"/>
		<path style="fill:#CD2B7B;" d="M121.092,119.377c-3.982,0-7.222-3.24-7.222-7.222v-4.815h14.445v4.815
			C128.315,116.137,125.075,119.377,121.092,119.377z"/>
		<path style="fill:#FACC07;" d="M121.092,121.784L121.092,121.784c-5.319,0-9.63,4.312-9.63,9.63v9.63h19.26v-9.63
			C130.723,126.096,126.411,121.784,121.092,121.784z"/>
		<rect x="113.87" y="131.414" style="fill:#CD2B7B;" width="14.445" height="4.815"/>
		<rect x="119.889" y="118.173" style="fill:#CD2B7B;" width="2.408" height="13.241"/>
		<rect x="111.463" y="102.524" style="fill:#131D42;" width="19.26" height="2.408"/>
		<rect x="111.463" y="138.636" style="fill:#131D42;" width="19.26" height="2.407"/>
		<g>
			<g>
				<rect x="133.13" y="107.339" style="fill:#6FB1FE;" width="2.408" height="14.445"/>
			</g>
			<g>
				<polygon style="fill:#6FB1FE;" points="134.334,123.486 129.871,119.024 131.574,117.321 134.334,120.082 137.094,117.321
					138.796,119.024 				"/>
			</g>
		</g>
		<g>
			<g>
				<rect x="106.648" y="121.784" style="fill:#6FB1FE;" width="2.408" height="14.445"/>
			</g>
			<g>
				<polygon style="fill:#6FB1FE;" points="110.611,126.246 107.851,123.486 105.091,126.246 103.389,124.544 107.851,120.082
					112.314,124.544 				"/>
			</g>
		</g>
	</g>
	<g>
		<path style="fill:#FACC07;" d="M236.768,66.4c-33.29,3.009-59.559,30.84-60.688,64.247c-0.839,24.812,11.77,46.601,30.992,58.831
			c7.32,4.657,12.339,12.189,14.349,20.629l4.561,19.154l18.96-0.397l18.96-0.398l3.789-19.508
			c1.674-8.619,6.64-16.227,13.809-21.295c17.528-12.391,28.792-32.977,28.308-56.054C309.002,93.098,275.801,62.872,236.768,66.4z"
			/>
		<g>
			<path style="fill:#EA830C;" d="M238.935,236.706c-0.074,0.001-0.149-0.001-0.225-0.008c-1.057-0.1-1.834-1.038-1.733-2.096
				c2.489-26.274,0.737-49.451-2.812-63.13c-0.461-0.022-0.928-0.048-1.399-0.076c-8.137-0.241-11.152-3.653-12.22-5.664
				c-1.217-2.295-1.125-4.953,0.246-7.116c1.456-2.296,4.087-3.577,7.024-3.445c1.569,0.076,3.056,0.911,4.42,2.483
				c1.75,2.019,3.382,5.458,4.792,10.073c5.168,0.123,9.407-0.145,12.864-0.658c1.91-4.636,4.424-8.512,7.209-10.704
				c2.671-2.106,4.942-2.091,6.377-1.719c2.979,0.785,4.678,3.211,4.225,6.036c-0.617,3.861-5.055,7.924-14.975,9.824
				c-1.688,4.71-2.786,10.249-2.674,15.629c-0.488,17.077,0.998,48.029,1.013,48.34c0.051,1.061-0.767,1.962-1.828,2.015
				c-1.04,0.069-1.963-0.767-2.014-1.829c-0.015-0.311-1.509-31.413-1.016-48.541c-0.105-4.905,0.735-10.17,2.22-14.971
				c-3.034,0.34-6.471,0.506-10.339,0.448c3.549,14.398,5.191,37.256,2.716,63.368C240.713,235.948,239.897,236.686,238.935,236.706
				z M227.267,159.01c-1.403,0.029-2.567,0.625-3.227,1.666c-0.63,0.994-0.665,2.178-0.096,3.252
				c1.15,2.167,4.428,3.488,8.994,3.623c0.026,0.001,0.051,0.003,0.077,0.006c-1.12-3.353-2.367-5.863-3.685-7.383
				c-0.63-0.725-1.233-1.137-1.696-1.159C227.509,159.009,227.387,159.008,227.267,159.01z M261.923,158.3
				c-0.725,0.015-1.543,0.378-2.441,1.087c-1.672,1.316-3.392,3.699-4.897,6.729c6.762-1.805,9.095-4.634,9.32-6.042
				c0.178-1.116-0.804-1.548-1.405-1.706C262.314,158.318,262.122,158.296,261.923,158.3z"/>
		</g>
		<polygon style="fill:#FF3E98;" points="255.186,260.313 236.026,260.715 231.628,251.471 259.193,250.893 		"/>
		<path style="fill:#CD2B7B;" d="M266.569,227.064l-43.31,0.908c-2.506,0.053-4.494,2.126-4.441,4.632l0.109,5.199
			c0.053,2.506,2.126,4.494,4.632,4.442l0.291-0.006c-1.239,1.314-1.986,3.093-1.946,5.041c0.083,3.941,3.345,7.069,7.286,6.987
			l32.557-0.683c3.941-0.083,7.069-3.345,6.987-7.286c-0.041-1.948-0.863-3.694-2.155-4.955l0.291-0.006
			c2.506-0.053,4.495-2.126,4.442-4.632l-0.109-5.199C271.149,229,269.075,227.011,266.569,227.064z"/>
		<path style="fill:#AE115D;" d="M266.569,227.064l-21.197,0.445l0.73,26.403l15.643-0.328c3.941-0.083,7.069-3.345,6.987-7.286
			c-0.041-1.948-0.863-3.694-2.155-4.955l0.291-0.006c2.506-0.053,4.495-2.126,4.442-4.632l-0.109-5.198
			C271.149,229,269.075,227.011,266.569,227.064z"/>
	</g>
	<g>
		<path style="fill:#6FB1FE;" d="M202.354,210.662c-0.464-1.856-1.195-3.604-2.156-5.201c3.535-3.871,5.608-6.425,5.343-6.69
			l-5.23-5.23c-0.266-0.267-2.819,1.809-6.691,5.341c-1.597-0.958-3.345-1.691-5.2-2.154c-0.24-5.234-0.578-8.507-0.955-8.507
			h-7.395c-0.376,0-0.716,3.273-0.954,8.507c-1.855,0.463-3.602,1.197-5.2,2.154c-3.871-3.532-6.426-5.608-6.693-5.341l-5.228,5.23
			c-0.266,0.265,1.808,2.819,5.343,6.69c-0.961,1.597-1.693,3.345-2.156,5.201c-5.235,0.238-8.507,0.579-8.507,0.955v7.395
			c0,0.375,3.272,0.714,8.507,0.954c0.463,1.855,1.196,3.604,2.156,5.2c-3.535,3.872-5.609,6.427-5.343,6.693l5.228,5.229
			c0.267,0.266,2.821-1.81,6.693-5.341c1.597,0.959,3.345,1.691,5.2,2.153c0.239,5.236,0.578,8.509,0.954,8.509h7.395
			c0.377,0,0.715-3.273,0.955-8.509c1.855-0.462,3.603-1.194,5.2-2.153c3.872,3.532,6.425,5.607,6.691,5.341l5.23-5.229
			c0.265-0.266-1.808-2.82-5.343-6.693c0.961-1.595,1.692-3.345,2.156-5.2c5.233-0.24,8.507-0.579,8.507-0.954v-7.395
			C210.861,211.24,207.587,210.9,202.354,210.662z"/>
		<path style="fill:#4A80E8;" d="M196.089,215.313c0,6.805-5.517,12.321-12.322,12.321c-6.805,0-12.321-5.517-12.321-12.321
			c0-6.804,5.517-12.32,12.321-12.32C190.573,202.993,196.089,208.51,196.089,215.313z"/>
		<path style="fill:#3547C7;" d="M192.358,215.313c0,4.745-3.846,8.59-8.591,8.59c-4.744,0-8.589-3.845-8.589-8.59
			c0-4.744,3.845-8.59,8.589-8.59C188.512,206.723,192.358,210.57,192.358,215.313z"/>
	</g>
	<g>
		<path style="fill:#6FB1FE;" d="M352.207,210.293c-0.702-2.806-1.807-5.449-3.26-7.862c5.343-5.852,8.478-9.713,8.077-10.114
			l-7.906-7.906c-0.402-0.404-4.262,2.735-10.115,8.074c-2.413-1.448-5.056-2.556-7.86-3.257c-0.363-7.912-0.873-12.86-1.443-12.86
			h-11.178c-0.568,0-1.082,4.947-1.443,12.86c-2.804,0.7-5.445,1.809-7.86,3.257c-5.852-5.339-9.713-8.477-10.117-8.074
			l-7.903,7.906c-0.402,0.4,2.734,4.262,8.077,10.114c-1.453,2.413-2.559,5.056-3.26,7.862c-7.914,0.359-12.86,0.874-12.86,1.443
			v11.178c0,0.567,4.946,1.079,12.86,1.441c0.7,2.804,1.807,5.448,3.26,7.86c-5.344,5.854-8.479,9.715-8.077,10.117l7.903,7.905
			c0.403,0.402,4.264-2.735,10.117-8.074c2.415,1.449,5.056,2.556,7.86,3.255c0.361,7.915,0.875,12.863,1.443,12.863H329.7
			c0.57,0,1.08-4.948,1.443-12.863c2.804-0.699,5.447-1.806,7.86-3.255c5.854,5.339,9.713,8.476,10.115,8.074l7.906-7.905
			c0.4-0.402-2.734-4.263-8.077-10.117c1.452-2.412,2.558-5.056,3.26-7.86c7.911-0.363,12.86-0.875,12.86-1.441v-11.178
			C365.067,211.167,360.118,210.652,352.207,210.293z"/>
		<path style="fill:#4A80E8;" d="M342.737,217.324c0,10.286-8.339,18.626-18.627,18.626c-10.286,0-18.626-8.339-18.626-18.626
			c0-10.285,8.339-18.624,18.626-18.624C334.398,198.7,342.737,207.039,342.737,217.324z"/>
		<path style="fill:#3547C7;" d="M337.097,217.324c0,7.173-5.814,12.986-12.987,12.986c-7.171,0-12.984-5.813-12.984-12.986
			c0-7.171,5.813-12.985,12.984-12.985C331.283,204.339,337.097,210.153,337.097,217.324z"/>
	</g>
	<g>
		<g>
			<g>
				<path style="fill:#6FB1FE;" d="M123.469,267.723c0,0,8.574,7.645,9.888,12.215c1.314,4.57,2.758,18.816,2.758,18.816
					l21.349,8.38v5.698h-32.532v-25.643L123.469,267.723z"/>
				<g>
					<g>
						<g>
							<g>
								<g>
									<g>
										<g>
											<g>
												<path style="fill:#EA830C;" d="M157.913,387.7c0.536,3.681,2.474,10.445,2.883,11.859l0.275,0.69l0.898,2.266
													l3.962-1.542l-0.208-2.762l-0.094-1.22l1.126,0.764l2.708,1.837l20.347-7.924l-1.166-2.963
													c-0.074-0.134-0.168-0.275-0.268-0.409c-0.275-0.335-0.657-0.624-1.186-0.67c-2.139-0.208-9.801-0.469-12.174-1.341
													c-1.837-0.677-4.016-2.809-4.901-3.728L157.913,387.7z"/>
											</g>
										</g>
									</g>
								</g>
							</g>
						</g>
						<g>
							<path style="fill:#E05D00;" d="M170.77,387.714c-0.006,0.042-0.011,0.083-0.016,0.125c-0.034,0.312,0.036,0.745,0.421,0.776
								c0.196,0.015,0.378-0.083,0.542-0.189c0.563-0.365,1.017-0.863,1.429-1.398c0.443-0.574,0.912-1.193,1.053-1.943
								c0.146-0.775-0.621-1.148-1.226-0.745C171.926,385.038,170.962,386.389,170.77,387.714z"/>
							<path style="fill:#E05D00;" d="M173.488,388.485c-0.006,0.042-0.011,0.083-0.016,0.125c-0.034,0.312,0.036,0.745,0.421,0.776
								c0.196,0.015,0.379-0.083,0.542-0.189c0.563-0.365,1.017-0.863,1.429-1.397c0.443-0.575,0.912-1.193,1.053-1.943
								c0.146-0.776-0.621-1.148-1.226-0.745C174.644,385.809,173.68,387.16,173.488,388.485z"/>
							<path style="fill:#E05D00;" d="M176.479,388.527c-0.006,0.042-0.011,0.083-0.016,0.125c-0.034,0.312,0.036,0.745,0.42,0.776
								c0.196,0.016,0.379-0.083,0.542-0.189c0.563-0.365,1.017-0.863,1.429-1.398c0.443-0.574,0.912-1.192,1.053-1.943
								c0.146-0.776-0.621-1.148-1.226-0.745C177.635,385.851,176.671,387.202,176.479,388.527z"/>
						</g>
						<path style="fill:#E05D00;" d="M188.376,388.297l-21.62,9.459l2.708,1.837l20.347-7.924l-1.166-2.963
							C188.57,388.572,188.477,388.431,188.376,388.297z"/>
						<polygon style="fill:#AE115D;" points="161.071,400.25 161.969,402.516 165.931,400.974 165.723,398.212 						"/>
					</g>
					<path style="fill:#AE115D;" d="M122.181,322.824c0,0,25.453,5.578,28.504,7.212c3.051,1.634,21.797,51.568,21.797,51.568
						l-17.978,8.715l-20.93-50.691l-29.579,1.724l-4.245-16.58L122.181,322.824z"/>
				</g>
				<g>
					<g>
						<rect x="181.733" y="319.684" style="fill:#131D42;" width="6.464" height="82.951"/>
						<path style="fill:#131D42;" d="M164.482,406.168h40.968l0,0c0-3.452-2.798-6.251-6.25-6.251h-28.467
							C167.28,399.917,164.482,402.716,164.482,406.168L164.482,406.168z"/>
					</g>

						<rect x="133.574" y="318.164" transform="matrix(-1 -1.224647e-16 1.224647e-16 -1 363.2226 641.9681)" style="fill:#FACC07;" width="96.075" height="5.639"/>
				</g>
				<g>
					<g>
						<polygon style="fill:#131D42;" points="89.051,350.327 78.984,300.941 83.76,300.941 94.894,351.168 						"/>
						<path style="fill:#131A70;" d="M75.448,292.733c1.986-2.088,16.108-2.061,29.563-1.525v11.615H73.68
							C73.68,302.822,71.527,296.856,75.448,292.733z"/>
					</g>
				</g>
				<g>
					<g>
						<polygon style="fill:#131D42;" points="133.574,354.175 142.676,406.168 139.499,406.168 126.765,356.602 						"/>
						<polygon style="fill:#131D42;" points="88.085,354.175 78.984,406.168 82.161,406.168 94.894,356.602 						"/>
					</g>

						<rect x="83.76" y="389.233" transform="matrix(-1 -1.224647e-16 1.224647e-16 -1 221.3133 781.7701)" style="fill:#131D42;" width="53.793" height="3.304"/>
				</g>
				<path style="fill:#131A70;" d="M141.267,348.814c0,0-51.228-4.123-55.149,0c-3.921,4.123-1.768,10.089-1.768,10.089h58.326
					L141.267,348.814z"/>
				<g>
					<g>
						<g>
							<g>
								<g>
									<g>
										<g>
											<path style="fill:#FACC07;" d="M149.467,394.936c0.536,3.681,2.474,10.445,2.883,11.859l0.275,0.69l0.898,2.266
												l3.962-1.542l-0.208-2.762l-0.094-1.22l1.126,0.764l2.708,1.837l20.347-7.924l-1.166-2.963
												c-0.074-0.134-0.168-0.275-0.268-0.409c-0.275-0.335-0.657-0.623-1.186-0.67c-2.139-0.208-9.801-0.469-12.175-1.341
												c-1.837-0.677-4.016-2.809-4.9-3.727L149.467,394.936z"/>
										</g>
									</g>
								</g>
							</g>
						</g>
						<g>
							<path style="fill:#E05D00;" d="M162.324,394.95c-0.006,0.042-0.012,0.083-0.016,0.125c-0.034,0.312,0.036,0.745,0.42,0.775
								c0.196,0.016,0.379-0.083,0.542-0.189c0.563-0.365,1.017-0.863,1.429-1.398c0.443-0.575,0.912-1.192,1.053-1.943
								c0.146-0.776-0.621-1.148-1.226-0.745C163.481,392.274,162.517,393.625,162.324,394.95z"/>
							<path style="fill:#E05D00;" d="M165.043,395.721c-0.006,0.042-0.011,0.083-0.016,0.125c-0.034,0.312,0.036,0.745,0.42,0.775
								c0.196,0.016,0.379-0.083,0.542-0.189c0.563-0.365,1.017-0.863,1.429-1.398c0.443-0.575,0.912-1.193,1.053-1.942
								c0.146-0.776-0.621-1.148-1.226-0.745C166.199,393.045,165.235,394.396,165.043,395.721z"/>
							<path style="fill:#E05D00;" d="M168.033,395.762c-0.006,0.042-0.011,0.083-0.016,0.125c-0.034,0.312,0.036,0.745,0.42,0.776
								c0.196,0.015,0.379-0.083,0.542-0.189c0.563-0.365,1.017-0.863,1.429-1.398c0.443-0.575,0.912-1.193,1.053-1.943
								c0.146-0.776-0.621-1.148-1.226-0.745C169.189,393.086,168.225,394.438,168.033,395.762z"/>
						</g>
						<path style="fill:#E05D00;" d="M179.93,395.532l-21.62,9.459l2.708,1.837l20.347-7.924l-1.166-2.963
							C180.125,395.807,180.031,395.667,179.93,395.532z"/>
						<polygon style="fill:#E05D00;" points="152.625,407.486 153.523,409.752 157.485,408.21 157.277,405.448 						"/>
					</g>
					<g>
						<path style="fill:#CD2B7B;" d="M165.416,388.755l-10.912,5.475l-7.486,3.129l-18.985-44.809c0,0-25.655,2.056-30.653-0.332
							c-4.998-2.387-11.262-21.257-11.262-21.257l18.805-4.602l7.87,7.301c0,0,19.528-0.077,22.933,1.455
							C141.032,337.502,165.416,388.755,165.416,388.755z"/>
						<path style="fill:#AE115D;" d="M154.504,394.23l-7.486,3.129l-18.985-44.809c0,0-25.655,2.056-30.653-0.332
							c-4.998-2.387-11.262-21.257-11.262-21.257h6.16c-1.528,5.481,0.817,11.662,5.078,15.482c4.425,3.969,10.548,5.635,16.49,5.65
							c5.942,0.016,11.779-1.48,17.472-3.178C138.517,360.656,147.304,382.493,154.504,394.23z"/>
					</g>
				</g>
				<g>
					<path style="fill:#6FB1FE;" d="M86.911,334.51L86.911,334.51c2.751-2.941,36.597-11.393,36.597-11.393l6.405,1.447v-2.642
						c0-1.151-0.392-2.289-1.185-3.122c-1.302-1.367-2.772-1.171-2.772-1.171l-0.069-3.951c0.303-2.77,2.43-24.7,2.146-34.671
						v-0.076c-0.101-3.389-1.224-6.67-3.2-9.422c-0.738-1.022-1.243-1.635-1.363-1.786c-0.013-0.006-0.013-0.013-0.019-0.025
						c0-0.006-0.007-0.006-0.007-0.006c-0.435-0.429-0.883-0.833-1.344-1.218c-5.534-4.664-12.476-6.241-12.476-6.241
						c-0.58-0.126-1.912,0.133-3.3,0.499c-1.729,0.456-6.739,4.647-6.745,4.65c-5.211,7.463-8.281,12.364-11.537,26.349
						c-0.429,1.836-0.833,3.957-1.218,6.254c-1.398,8.366-2.202,16.813-2.462,25.284C84.241,327.171,85.113,331.042,86.911,334.51z"
						/>
				</g>
				<g>
					<polygon style="fill:#131A70;" points="122.591,354.935 128.43,353.414 121.481,326.749 88.75,326.682 84.074,353.413
						89.906,353.823 93.776,332.726 116.816,332.774 					"/>
				</g>
				<path style="fill:#FFF5F2;" d="M117.762,263.501c0,0,3.627,1.586,4.937,3.493c0.281,0.41,0,8.715,0,8.715l-4.68-3.073
					l-4.316,4.33c0,0-9.024-9.61-9.597-10.995c-0.712-1.72,0.364-4.704,0.364-4.704s2.913-1.017,3.946-0.991l8.658,9.827
					L117.762,263.501z"/>
				<path style="fill:#CD2B7B;" d="M122.698,275.708c0,0-0.937,3.995-2.387,4.218c-1.45,0.224-6.609-2.961-6.609-2.961l4.316-4.33
					L122.698,275.708z"/>
				<path style="fill:#4A80E8;" d="M103.822,271.217c1.961,3.125,4.312,5.878,7.245,8.129c2.762,2.121,10.247,7.313,12.586,2.236
					c0.21-0.455,0.983-0.132,0.814,0.343c-1.592,4.474-6.589,2.78-9.837,1.245c-5.08-2.4-9.254-6.376-12.074-11.213
					C102.078,271.139,103.321,270.419,103.822,271.217z"/>
				<g>
					<g>
						<g>
							<polygon style="fill:#131D42;" points="192.351,318.164 152.182,318.164 158.89,290.652 199.06,290.652 							"/>
							<path style="fill:#FFF5F2;" d="M180.931,304.714c-1.407,0-2.547-1.14-2.547-2.547c0-0.595,0.213-1.136,0.555-1.57
								c-0.341-0.095-0.693-0.163-1.064-0.163c-2.195,0-3.974,1.779-3.974,3.974c0,2.195,1.779,3.974,3.974,3.974
								c2.149,0,3.889-1.71,3.961-3.841C181.553,304.649,181.25,304.714,180.931,304.714z"/>
						</g>
					</g>
					<rect x="145.215" y="314.289" style="fill:#131D42;" width="47.137" height="3.876"/>
				</g>
				<path style="fill:#6FB1FE;" d="M100.984,275.122c0,0,8.212,5.789,9.05,9.682c0.838,3.893,3.668,19.604,3.668,19.604
					s17.715-0.546,21.018,0c3.303,0.546,9.169,2.725,9.169,2.725v8.548c0,0-5.05,3.789-9.734,4.003
					c-4.684,0.214-25.452-1.992-29.144-4.506c-3.692-2.514-11.402-19.944-11.402-23.464
					C93.609,288.194,95.271,275.083,100.984,275.122z"/>
				<path style="fill:#4A80E8;" d="M94.41,290.886c0.762,8.34,3.096,16.544,7.028,23.955c1.074,2.025,2.303,3.944,4.512,4.8
					c1.938,0.751,4.198,0.606,6.251,0.601c4.221-0.011,8.404-0.433,12.586-0.976c0.328-0.042,0.397,0.505,0.078,0.576
					c-4.957,1.106-10.114,1.655-15.196,1.519c-3.314-0.088-5.998-0.825-8.026-3.626c-5.41-7.471-7.69-17.856-8.584-26.849
					C92.973,290.024,94.332,290.024,94.41,290.886z"/>
				<path style="fill:#D8684E;" d="M143.889,315.011l1.325-0.722h7.912l0.915-3.751c0,0-5.739-2.135-6.465-2.155
					c-0.726-0.02-3.687-0.467-3.687-0.467V315.011z"/>
				<polygon style="fill:#FFF5F2;" points="144.56,305.178 143.889,316.91 140.873,318.164 140.467,304.408 				"/>
				<path style="fill:#4A80E8;" d="M103.798,284.437c-0.245-0.409,0.312-0.821,0.65-0.501c4.421,4.187,7.54,11.57,8.428,17.725
					c4.901-1.343,10.439-1.659,15.606-0.781c0.764-7.353,0.807-14.573,0.25-21.954c-0.013-0.169,0.268-0.209,0.298-0.04
					c1.333,7.289,1.376,14.832,0.291,22.16c3.721,0.732,7.222,2.089,10.108,4.154c0.288,0.206,0.127,0.768-0.262,0.622
					c-5.168-1.931-9.84-3.8-15.446-4.066c-3.597-0.17-7.014,0.291-10.389,1.128c-0.078,0.591-0.546,1.131-0.769,1.667
					c-0.362,0.867-0.412,1.713-0.507,2.633c-0.034,0.332-0.413,0.678-0.75,0.43c-0.164-0.121-0.263-0.204-0.376-0.37
					c-0.055-0.08-0.043-0.236,0.038-0.298c0.027-0.021,0.05-0.032,0.075-0.049c-0.061-0.862,0.135-1.762,0.484-2.538
					c0.162-0.361,0.383-0.819,0.68-1.182c-1.411,0.385-2.818,0.827-4.23,1.319c-0.506,0.177-0.853-0.632-0.367-0.871
					c1.442-0.71,3.01-1.296,4.647-1.779c-0.913-3.12-1.811-6.179-3.243-9.134C107.568,289.726,105.488,287.255,103.798,284.437z"/>
				<g>
					<path style="fill:#D8684E;" d="M118.858,256.641l-0.452,6.181l-0.054,0.679l-0.733,6.606c0,0-9.201-9.423-9.201-9.828
						c0.021-0.121,0.108-1.125,0.205-2.401c0.183-2.503,0.442-6.038,0.442-6.038L118.858,256.641z"/>
					<path style="fill:#AC4732;" d="M118.858,256.641l-0.452,6.181c-0.657,0.273-1.433,0.132-2.133-0.061
						c-2.187-0.628-4.224-1.733-5.905-3.192c-0.549-0.476-1.185-1.054-1.746-1.692c0.183-2.503,0.442-6.038,0.442-6.038
						L118.858,256.641z"/>
				</g>
				<g>
					<g>
						<g>
							<path style="fill:#D8684E;" d="M107.239,254.92c0,0,0.281,0.811,1.536,1.922h0.003c0.256,0.228,0.555,0.469,0.9,0.718
								c1.318,0.945,13.66,6.234,15.562,5.981c1.902-0.254,3.694-6.788,3.792-7.475c0.611-4.216,2.292-17.245,2.292-17.245
								c-4.69-14.198-21.424-6.845-23.325-5.451C106.098,234.764,107.239,254.92,107.239,254.92z"/>
							<g>
								<path style="fill:#ED7864;" d="M124.384,250.599c0,0-2.905,0.41-3.585,0l0.411,1.833c0,0,3.924-0.873,4.386-1.193
									L124.384,250.599z"/>
								<path style="fill:#AC4732;" d="M123.568,243.051c-0.526,2.52-0.229,5.268,0.816,7.548c-0.955,0.938-1.999,1.632-3.225,1.843
									c1.477,0.405,3.216,0.004,4.372-1.161C124.32,248.855,123.514,245.87,123.568,243.051z"/>
							</g>
							<path style="fill:#FFFFFF;" d="M116.589,254.589c0,0,3.535-0.868,9.007,0.87c0,0-1.788,3.902-5.032,3.377
								C117.321,258.311,116.589,254.589,116.589,254.589z"/>
							<path style="fill:#ED7864;" d="M108.777,256.842c0.256,0.228,0.555,0.469,0.9,0.718c1.318,0.945,13.66,6.234,15.562,5.981
								c1.902-0.254,3.694-6.788,3.792-7.475c-1.184,2.87-2.522,6.838-3.869,6.712C123.135,262.587,110.276,257.631,108.777,256.842
								z"/>
						</g>
						<g>
							<path style="fill:#131A70;" d="M129.863,243.801c0,0-1.259-3.583-2.829-2.813c-1.57,0.77-1.063,1.062-1.063,1.062
								L129.863,243.801z"/>
							<path style="fill:#131A70;" d="M112.285,241.974c0,0,4.951-4.05,6.353-2.068c0.818,1.157,0.016,1.711,0.016,1.711
								L112.285,241.974z"/>
							<g>
								<path style="fill:#161818;" d="M114.317,245.79c0,1.312,0.662,2.375,1.479,2.375c0.817,0,1.479-1.063,1.479-2.375
									c0-1.312-0.662-2.375-1.479-2.375C114.979,243.415,114.317,244.479,114.317,245.79z"/>
								<path style="fill:#FFF0E7;" d="M112.905,244.465c0,0,0.52,0.816,1.421,1.18c0.901,0.365,1.843,0.141,1.843,0.141
									s-0.52-0.816-1.422-1.181C113.846,244.24,112.905,244.465,112.905,244.465z"/>
							</g>
							<g>
								<path style="fill:#161818;" d="M128.301,246.681c0,0.989-0.499,1.79-1.115,1.79c-0.616,0-1.115-0.801-1.115-1.79
									s0.499-1.79,1.115-1.79C127.802,244.891,128.301,245.692,128.301,246.681z"/>
								<path style="fill:#FFF0E7;" d="M129.258,245.812c0,0-0.391,0.528-1.033,0.788c-0.641,0.259-1.29,0.152-1.29,0.152
									s0.391-0.528,1.033-0.787C128.61,245.705,129.258,245.812,129.258,245.812z"/>
							</g>
							<path style="fill:#ED7864;" d="M127.201,252.163c0.195,0.52,1.317,0.58,2.508,0.134c1.19-0.445,1.998-1.228,1.803-1.748
								s-1.317-0.58-2.508-0.134C127.813,250.86,127.006,251.643,127.201,252.163z"/>
							<path style="fill:#ED7864;" d="M112.225,249.736c-0.203,0.784,1.088,1.796,2.883,2.262c1.795,0.465,3.415,0.206,3.618-0.578
								c0.203-0.784-1.088-1.796-2.883-2.262C114.049,248.694,112.429,248.952,112.225,249.736z"/>
						</g>
					</g>
					<g>
						<path style="fill:#ED7864;" d="M109.054,255.423c-2.542-0.2-4.392-1.708-5.383-2.971c-0.223-0.285-0.402-0.557-0.536-0.799
							c-0.726-1.316-0.934-5.882,0.935-6.943c1.31-0.742,2.263,0.335,2.716,1.048v0.003c0.193,0.303,0.296,0.54,0.296,0.54
							L109.054,255.423z"/>
						<path style="fill:#D8684E;" d="M109.054,255.423c-2.542-0.2-4.392-1.708-5.383-2.971c-0.086-0.129-0.16-0.252-0.224-0.368
							c-0.726-1.317-0.935-5.882,0.935-6.942c1.061-0.602,1.888-0.01,2.405,0.616v0.003c0.193,0.303,0.296,0.54,0.296,0.54
							L109.054,255.423z"/>
						<g>
							<path style="fill:#131D42;" d="M122.598,238.715c-2.149-0.607-4.305-1.228-6.286-2.266c-1.257-0.658-2.441-1.506-3.399-2.551
								c-3.793,3.779-5.84,9.495-4.831,14.706c-0.219-1.104-1.031-2.068-2.076-2.485c-1.053-0.409-2.186-0.417-3.099,0.241
								c-0.607-1.937-1.213-3.889-1.593-5.877c-0.19-0.987-0.322-1.973-0.373-2.975c-0.146-3.026,0.541-6.213,2.522-8.508
								c1.805-2.098,4.824-3.245,7.455-2.514c0.183-0.621,0.482-1.162,0.957-1.542c0.972-0.797,2.814-0.862,3.998-0.98
								c1.645-0.168,3.311-0.132,4.956,0.11c2.909,0.431,5.774,1.542,7.952,3.516c1.937,1.747,3.252,4.093,4.137,6.542
								c0.051,0.132,0.095,0.271,0.139,0.402c0.789,2.324,1.243,4.758,1.688,7.185c-4.561-0.533-8.932-2.602-12.235-5.796
								C122.116,236.8,122.152,237.859,122.598,238.715z"/>
							<path style="fill:#131A70;" d="M118.22,229.951c-0.066,1.52,0.088,3.063,0.453,4.539c-2.105-0.548-3.991-1.908-5.182-3.728
								c-1.93,1.257-3.881,2.522-5.519,4.144c-1.645,1.615-2.975,3.64-3.384,5.906c-1.104,0.081-2.215-0.029-3.274-0.329
								c-0.19-0.987-0.322-1.973-0.373-2.975c-0.073-1.579,0.073-3.201,0.519-4.722c0.402-1.389,1.052-2.69,2.003-3.786
								c1.805-2.098,4.824-3.245,7.455-2.514c0.183-0.621,0.482-1.162,0.957-1.542c0.972-0.797,2.814-0.862,3.998-0.98
								c1.645-0.168,3.311-0.132,4.956,0.11c2.909,0.431,5.774,1.542,7.952,3.516c0.183,0.161,0.358,0.329,0.526,0.519
								c1.652,1.667,2.807,3.801,3.611,6.023c0.051,0.132,0.095,0.271,0.139,0.402c-1.783-0.146-3.552-0.366-5.306-0.716
								C124.36,233.145,121.034,231.954,118.22,229.951z"/>
							<path style="fill:#172D8A;" d="M115.187,227.246c-0.329,0.965-0.322,2.032,0.015,2.99c-1.608-0.336-3.15-0.943-4.561-1.783
								c-2.894,1.396-5.277,3.823-6.622,6.739c-0.928-0.709-1.791-1.513-2.558-2.405c0.402-1.389,1.052-2.69,2.003-3.786
								c1.805-2.098,4.824-3.245,7.455-2.514c0.183-0.621,0.482-1.162,0.957-1.542c0.972-0.797,2.814-0.862,3.998-0.98
								c1.645-0.168,3.311-0.132,4.956,0.11c2.909,0.431,5.774,1.542,7.952,3.516c0.183,0.161,0.358,0.329,0.526,0.519
								C124.601,228.679,119.784,228.401,115.187,227.246z"/>
						</g>
						<path style="fill:#ED7864;" d="M103.481,248.337c-0.094,0.365-0.034,0.745,0.086,1.106c0.511,1.532,2.041,2.701,3.506,3.787
							c-0.442-0.743-0.604-1.582-0.514-2.399c0.031-0.284,0.093-0.567,0.095-0.853C106.665,248.829,104.034,246.178,103.481,248.337
							z"/>
						<g>
							<path style="fill:#CF4A57;" d="M107.808,253.665c0,0-0.029-0.016-0.083-0.047c-0.053-0.032-0.139-0.074-0.236-0.141
								c-0.196-0.131-0.467-0.341-0.723-0.653c-0.254-0.311-0.485-0.725-0.594-1.216c-0.099-0.489-0.078-1.06,0.185-1.61
								c0.028-0.07,0.067-0.136,0.106-0.201l0.029-0.049c0.007-0.012,0.003-0.005,0.003-0.005l0,0l0.001-0.001h0
								c0,0,0.002,0.003-0.004-0.008l-0.024-0.044l-0.049-0.087c-0.034-0.057-0.067-0.115-0.102-0.171
								c-0.138-0.225-0.288-0.435-0.441-0.631c-0.154-0.196-0.313-0.376-0.471-0.541c-0.159-0.164-0.312-0.317-0.463-0.431
								c-0.151-0.115-0.318-0.189-0.474-0.209c-0.157-0.018-0.304,0.018-0.404,0.067c-0.101,0.05-0.157,0.115-0.179,0.163
								c-0.025,0.048-0.023,0.077-0.026,0.077c0,0-0.008-0.028,0.004-0.082c0.01-0.053,0.051-0.134,0.151-0.208
								c0.1-0.072,0.256-0.14,0.463-0.145c0.207-0.002,0.429,0.067,0.628,0.18c0.201,0.113,0.381,0.254,0.57,0.409
								c0.188,0.156,0.379,0.332,0.563,0.528c0.183,0.196,0.36,0.412,0.521,0.646c0.041,0.058,0.079,0.118,0.118,0.179l0.056,0.092
								l0.074,0.13l0.052,0.091c-0.013,0.03-0.034,0.061-0.05,0.091l-0.075,0.13c-0.034,0.057-0.068,0.114-0.091,0.175
								c-0.229,0.477-0.279,0.976-0.237,1.423c0.053,0.448,0.204,0.846,0.387,1.162c0.184,0.316,0.395,0.551,0.553,0.706
								c0.078,0.078,0.149,0.132,0.193,0.173C107.784,253.644,107.808,253.665,107.808,253.665z"/>
						</g>
					</g>
				</g>
			</g>
			<g>
				<g>
					<path style="fill:#FF3E98;" d="M205.77,318.164h8.041c0.658,0,1.191-0.533,1.191-1.191v-12.517h-10.424v12.517
						C204.579,317.631,205.112,318.164,205.77,318.164z"/>
					<g>
						<path style="fill:#FF3E98;" d="M200.793,313.84v-5.06c0-1.501,1.222-2.723,2.723-2.723h4.071v10.505h-4.071
							C202.014,316.563,200.793,315.342,200.793,313.84z M206.031,307.613h-2.515c-0.643,0-1.167,0.524-1.167,1.167v5.06
							c0,0.643,0.523,1.167,1.167,1.167h2.515V307.613z"/>
					</g>
				</g>
			</g>
		</g>
		<g>
			<g>
				<g>
					<g>
						<path style="fill:#FF7D6F;" d="M393.619,321.45l-5.736-4.348l-7.877,7.308c0,0-19.545-0.077-22.952,1.457
							c-5.31,2.389-27.67,61.315-27.67,61.315h9.339l26.031-43.865c0,0,25.677,2.058,30.679-0.332
							C400.434,340.594,393.619,321.45,393.619,321.45z"/>
						<g>
							<path style="fill:#FF7D6F;" d="M342.636,400.434l-3.948,0.87l-1.039-6.137c0,0-2.402,6.935-3.601,7.437
								c-1.199,0.502-12.942,1.606-17.407,0.883c-4.558-0.741-4.458-2.067-4.458-2.067c0.39-0.964,3.66-3.532,6.864-4.813
								c0.648-0.26,1.484-0.83,2.407-1.578c3.615-2.925,8.55-8.542,8.55-8.542l8.573-0.59
								C342.434,390.064,342.636,400.434,342.636,400.434z"/>
							<path style="fill:#3547C7;" d="M342.636,400.434l-3.948,0.867l-1.039-6.135c0,0-2.402,6.935-3.601,7.437
								c-1.199,0.502-12.942,1.606-17.407,0.883c-4.558-0.741-4.458-2.067-4.458-2.067c0.39-0.964,3.66-3.532,6.864-4.813
								c0,0,1.838,4.307,4.998,3.997c3.166-0.31,10.747-6.628,11.678-9.497c0.937-2.87,3.822-3.925,3.822-3.925
								C343.402,391.348,342.636,400.434,342.636,400.434z"/>
						</g>
					</g>
					<path style="fill:#131D42;" d="M365.307,268.176c1.16,2.271,3.689,3.487,6.123,4.251c8.696,2.728,18.513,1.643,26.404-2.919
						c1.708-0.987,3.357-2.162,4.492-3.775c0.712-1.027,1.193-2.25,1.284-3.482c0.035-0.42,0.025-0.844-0.046-1.263
						c-0.042-0.293-0.114-0.58-0.21-0.863c-0.627-1.794-2.217-3.077-3.133-4.742c-1.246-2.262-1.135-4.981-1.587-7.521
						c-0.475-2.667-1.685-5.173-3.377-7.277c-2.841-3.538-7.593-6.408-12.214-6.642c-4.867-0.245-10.769,3.115-13.231,7.203
						c-1.485,2.461-2.04,5.35-2.569,8.172c-0.214,1.142-0.43,2.277-0.644,3.419l-1.533,8.155c-0.207,1.078-0.401,2.197-0.459,3.304
						C364.539,265.582,364.685,266.945,365.307,268.176z"/>
					<path style="fill:#CD2B7B;" d="M398.715,290.452c2.381-7.03,3.544-13.665,3.544-13.665s-8.766-6.076-11.298-7.595
						c-2.532-1.519-8.07,2.211-10.069,1.664c-1.999-0.547-4.754,0.263-4.754,0.263s-3.368,33.027-3.298,33.852
						c0.03,0.35,0.678,1.003,2.203,1.52l-1.114,0.754l-3.889,17.315c0,0,32.938,12.22,32.938,10.633
						c0-1.587-4.262-44.742-4.262-44.742L398.715,290.452z"/>
					<path style="fill:#CD2B7B;" d="M376.138,271.119c0,0-8.231,4.203-9.546,8.777c-1.315,4.574-2.761,18.832-2.761,18.832
						l-21.367,8.387v5.703h32.559v-25.664L376.138,271.119z"/>
					<g>
						<g>
							<rect x="311.705" y="319.676" style="fill:#131D42;" width="6.47" height="83.021"/>
							<path style="fill:#131D42;" d="M335.441,406.233h-41.002l0,0c0-3.455,2.801-6.256,6.256-6.256h28.491
								C332.641,399.977,335.441,402.778,335.441,406.233L335.441,406.233z"/>
						</g>
						<rect x="218.817" y="318.155" style="fill:#FACC07;" width="147.558" height="5.644"/>
					</g>
					<g>
						<g>
							<polygon style="fill:#131A70;" points="410.936,350.345 421.011,300.918 416.231,300.918 405.087,351.187 							"/>
							<path style="fill:#131D42;" d="M424.55,292.703c-1.988-2.09-16.122-2.063-29.589-1.527v11.624h31.358
								C426.32,302.801,428.474,296.829,424.55,292.703z"/>
						</g>
					</g>
					<g>
						<g>
							<g>
								<polygon style="fill:#131D42;" points="366.375,354.196 357.266,406.233 360.445,406.233 373.19,356.625 								"/>
								<polygon style="fill:#131D42;" points="411.902,354.196 421.011,406.233 417.832,406.233 405.087,356.625 								"/>
							</g>
						</g>
						<rect x="362.392" y="389.284" style="fill:#131D42;" width="53.838" height="3.306"/>
					</g>
					<path style="fill:#131A70;" d="M358.675,348.831c0,0,51.271-4.127,55.196,0c3.924,4.127,1.769,10.098,1.769,10.098h-58.375
						L358.675,348.831z"/>
					<g>
						<path style="fill:#FFA07F;" d="M400.786,330.704l-5.736-4.348l-7.877,7.307c0,0-19.545-0.077-22.952,1.457
							c-5.31,2.389-27.67,61.314-27.67,61.314h9.339l26.031-43.865c0,0,25.676,2.058,30.679-0.332
							C407.601,349.848,400.786,330.704,400.786,330.704z"/>
						<g>
							<path style="fill:#FFA07F;" d="M349.803,409.688l-3.948,0.87l-1.039-6.137c0,0-2.402,6.935-3.601,7.437
								s-12.942,1.605-17.407,0.883c-4.558-0.741-4.458-2.067-4.458-2.067c0.39-0.964,3.66-3.532,6.864-4.813
								c0.648-0.26,1.484-0.83,2.407-1.577c3.615-2.925,8.55-8.542,8.55-8.542l8.573-0.59
								C349.601,399.319,349.803,409.688,349.803,409.688z"/>
							<path style="fill:#3547C7;" d="M349.803,409.688l-3.948,0.867l-1.039-6.135c0,0-2.402,6.935-3.601,7.437
								s-12.942,1.605-17.407,0.883c-4.558-0.741-4.458-2.067-4.458-2.067c0.39-0.964,3.66-3.532,6.864-4.813
								c0,0,1.838,4.307,4.998,3.997c3.166-0.31,10.747-6.628,11.678-9.497c0.937-2.87,3.822-3.925,3.822-3.925
								C350.569,400.603,349.803,409.688,349.803,409.688z"/>
						</g>
					</g>
					<path style="fill:#FACC07;" d="M370.04,324.56c0,0-17.181-0.88-20.79,5.477c-3.608,6.356-11.626,22.926-11.626,22.926
						l19.804,10.013c0,0,5.736-5.437,4.965-4.047c-0.772,1.391,3.032,8.769,3.032,8.769l6.496-15.128c0,0,24.371,4.456,30.679-0.332
						c6.308-4.788-1.813-22.884-1.813-22.884L370.04,324.56z"/>
					<g>
						<polygon style="fill:#131D42;" points="377.367,354.957 371.524,353.435 378.478,326.747 411.236,326.68 415.917,353.434
							410.08,353.844 406.207,332.729 383.147,332.777 						"/>
					</g>
					<g>
						<g>
							<g>
								<polygon style="fill:#131D42;" points="307.548,318.155 347.751,318.155 341.037,290.62 300.834,290.62 								"/>
								<path style="fill:#FFF5F2;" d="M318.978,304.694c1.408,0,2.549-1.141,2.549-2.549c0-0.596-0.213-1.137-0.555-1.571
									c0.341-0.095,0.694-0.163,1.065-0.163c2.197,0,3.977,1.781,3.977,3.977c0,2.197-1.781,3.977-3.977,3.977
									c-2.151,0-3.892-1.711-3.964-3.844C318.355,304.628,318.658,304.694,318.978,304.694z"/>
							</g>
						</g>

							<rect x="307.548" y="314.277" transform="matrix(-1 -1.224647e-16 1.224647e-16 -1 662.2726 632.4321)" style="fill:#131D42;" width="47.177" height="3.879"/>
					</g>
					<path style="fill:#CD2B7B;" d="M398.993,275.076c0,0-8.219,5.794-9.058,9.691c-0.839,3.896-3.671,19.621-3.671,19.621
						s-17.73-0.546-21.036,0c-3.306,0.546-9.177,2.727-9.177,2.727v8.555c0,0,5.055,3.792,9.742,4.006
						c4.688,0.214,25.473-1.993,29.168-4.509c3.696-2.516,11.412-19.961,11.412-23.484
						C406.373,288.16,404.71,275.038,398.993,275.076z"/>
					<path style="fill:#FFA07F;" d="M356.051,314.999l-1.326-0.722h-7.919l-0.915-3.755c0,0,5.744-2.137,6.471-2.157
						c0.727-0.02,3.69-0.467,3.69-0.467V314.999z"/>
					<polygon style="fill:#FFF5F2;" points="355.38,305.158 356.051,316.9 359.07,318.155 359.476,304.388 					"/>
					<path style="fill:#AE115D;" d="M368.392,292.14c-0.757,5.082,1.318,10.495,5.28,13.767c-3.368-3.376-4.668-8.668-3.249-13.221
						c0.525-1.684,1.383-3.247,1.965-4.912c0.352-1.006,0.981-2.821,0.508-3.868c-0.701-1.548-1.489,0.216-1.865,0.932
						C369.829,287.137,368.777,289.557,368.392,292.14z"/>
					<g>
						<g>
							<path style="fill:#FFA07F;" d="M390.961,269.192c0,0-6.429,2.588-7.503,2.345c-1.073-0.237-2.566-0.681-2.566-0.681
								c0.178-0.29,1.288-2.912,1.107-3.698c-0.42-1.813-1.435-4.283-1.435-4.283l5.876-2.947c0,0,0.491,1.728,1.097,3.546
								C388.149,265.315,390.532,268.955,390.961,269.192z"/>
							<path style="fill:#FF7D6F;" d="M387.535,263.471c-1.523,1.491-3.403,3.266-4.052,3.589c-0.53,0.262-1.063,0.219-1.482,0.097
								c-0.423-1.814-1.438-4.281-1.438-4.281l5.875-2.948C386.439,259.929,386.933,261.659,387.535,263.471z"/>
							<g>
								<path style="fill:#FFBF90;" d="M387.518,242.201c-3.898-3.414-9.717-3.816-13.821-0.651
									c-0.943,0.728-1.671,1.508-1.939,2.295c-1.074,3.149-1.711,14.291,1.24,19.21c2.951,4.919,6.399,3.728,7.612,3.191
									c1.213-0.537,6.812-3.805,7.924-5.923c1.112-2.118,2.713-12.495,1.709-15.008
									C389.908,244.475,388.819,243.34,387.518,242.201z"/>
								<path style="fill:#FFA07F;" d="M387.818,241.364c-3.898-3.414-9.718-3.816-13.821-0.651
									c-0.943,0.728-1.67,1.508-1.939,2.295c-1.073,3.149-1.711,14.291,1.24,19.21c2.951,4.919,6.399,3.728,7.612,3.191
									c1.213-0.537,6.812-3.805,7.924-5.923c1.112-2.118,2.713-12.495,1.709-15.008
									C390.207,243.638,389.119,242.503,387.818,241.364z"/>
								<g>
									<path style="fill:#FF7D6F;" d="M378.281,256.507c0.266-0.08,0.534-0.206,0.808-0.162c-0.311,0.612-0.872,1.093-1.525,1.306
										c-0.05,0.016-0.103,0.032-0.155,0.027c-0.065-0.006-0.122-0.041-0.176-0.077c-0.341-0.228-0.636-0.524-0.864-0.865
										c-0.046-0.069-0.09-0.143-0.104-0.224c-0.047-0.271,0.133-0.202,0.288-0.13c0.18,0.083,0.371,0.144,0.566,0.181
										C377.503,256.635,377.905,256.619,378.281,256.507z"/>
									<path style="fill:#FC5B68;" d="M377.516,257.494c-0.154-0.155-0.33-0.29-0.489-0.442c-0.196-0.188-0.377-0.39-0.533-0.613
										c0.904-0.548,0.949-1.455,0.968-2.486c0.009-0.465-0.094-0.931-0.296-1.35c-0.106-0.22-0.239-0.427-0.395-0.615
										c-0.079-0.096-0.164-0.186-0.255-0.271c-0.088-0.083-0.182-0.132-0.291-0.185c0.05,0.064,0.082,0.138,0.127,0.203
										c0.117,0.172,0.24,0.333,0.338,0.517c0.098,0.184,0.181,0.377,0.246,0.575c0.132,0.396,0.198,0.815,0.188,1.233
										c-0.01,0.41-0.094,0.819-0.266,1.192c-0.197,0.426-0.525,0.84-0.936,1.071c-0.003,0.002,0.553,0.727,0.608,0.787
										c0.142,0.154,0.299,0.295,0.47,0.418c0.167,0.12,0.359,0.263,0.572,0.267c0.067,0.001,0.136-0.01,0.192-0.045
										c-0.035-0.026-0.068-0.056-0.097-0.088c-0.013-0.014-0.025-0.029-0.037-0.044
										C377.593,257.575,377.555,257.534,377.516,257.494z"/>
									<g>
										<path style="fill:#FC5B68;" d="M383.053,258.378c-1.942,1.44-4.526,1.977-6.882,1.432
											c1.197,0.621,2.479,0.946,3.802,0.686C381.296,260.236,382.181,259.406,383.053,258.378z"/>
										<path style="fill:#FC5B68;" d="M381.295,260.97c-0.804,0.651-1.935,0.876-2.927,0.582
											c0.416,0.404,0.953,0.622,1.528,0.544C380.472,262.017,381.002,261.471,381.295,260.97z"/>
									</g>
								</g>
								<path style="fill:#FFA07F;" d="M388.386,254.844c0.297-0.193,1.619-2.495,2.906-1.368c1.287,1.127,1.862,3.192,0.957,4.509
									c-0.826,1.203-2.019,2.54-3.715,2.336L388.386,254.844z"/>
								<path style="fill:#FF7D6F;" d="M391.466,255.088c0.101,0.272,0.094,0.57,0.04,0.857c-0.227,1.222-1.224,2.253-2.182,3.215
									c0.25-0.609,0.29-1.268,0.149-1.888c-0.049-0.216-0.119-0.428-0.148-0.647C389.211,255.743,390.866,253.477,391.466,255.088
									z"/>
								<g>
									<path style="fill:#CF4A57;" d="M388.833,259.559c0,0,0.019-0.015,0.056-0.043c0.036-0.029,0.093-0.069,0.158-0.129
										c0.13-0.118,0.306-0.303,0.462-0.564c0.155-0.261,0.283-0.6,0.317-0.987c0.026-0.385-0.041-0.821-0.282-1.221
										c-0.027-0.051-0.061-0.098-0.095-0.145l-0.026-0.035c-0.006-0.009-0.003-0.003-0.003-0.003l0,0l-0.001,0h0
										c0,0-0.001,0.002,0.002-0.007l0.013-0.036l0.028-0.071c0.019-0.047,0.038-0.094,0.058-0.14
										c0.079-0.184,0.168-0.359,0.261-0.523c0.093-0.164,0.191-0.316,0.29-0.456c0.1-0.14,0.196-0.271,0.295-0.372
										c0.099-0.101,0.212-0.173,0.323-0.202c0.111-0.027,0.221-0.013,0.298,0.016c0.078,0.03,0.124,0.075,0.145,0.109
										c0.022,0.035,0.024,0.057,0.024,0.057s0.005-0.023-0.009-0.063c-0.012-0.04-0.049-0.098-0.128-0.147
										c-0.079-0.047-0.198-0.086-0.348-0.072c-0.15,0.016-0.304,0.089-0.437,0.193c-0.135,0.104-0.251,0.228-0.374,0.364
										c-0.122,0.136-0.243,0.288-0.358,0.455c-0.114,0.167-0.222,0.348-0.316,0.541c-0.024,0.048-0.046,0.097-0.068,0.147
										l-0.032,0.075l-0.042,0.106l-0.029,0.074c0.012,0.022,0.03,0.044,0.045,0.065l0.066,0.093
										c0.03,0.041,0.059,0.082,0.082,0.126c0.209,0.346,0.292,0.725,0.303,1.073c0.003,0.349-0.069,0.668-0.172,0.926
										c-0.104,0.259-0.234,0.458-0.334,0.591c-0.049,0.067-0.096,0.114-0.123,0.149
										C388.848,259.541,388.833,259.559,388.833,259.559z"/>
								</g>
								<path style="fill:#131A70;" d="M371.528,249.364c0,0,1.406-1.411,2.395-1.445c0.989-0.035,1.401,0.823,1.04,1.051
									C374.601,249.198,371.528,249.364,371.528,249.364z"/>
								<path style="fill:#131A70;" d="M385.542,249.075c0,0-2.513-1.686-4.068-1.776c-1.554-0.09-2.006,0.872-1.389,1.151
									C380.701,248.73,385.542,249.075,385.542,249.075z"/>
								<g>
									<path style="fill:#FF7D6F;" d="M382.474,256.522c0.122,0.457,1.199,0.565,2.406,0.241c1.206-0.323,2.085-0.956,1.962-1.413
										c-0.122-0.457-1.199-0.565-2.406-0.241C383.23,255.433,382.351,256.066,382.474,256.522z"/>
									<path style="fill:#FF7D6F;" d="M370.197,255.71c-0.109,0.341,0.635,0.884,1.663,1.214c1.028,0.329,1.949,0.32,2.058-0.022
										c0.109-0.341-0.635-0.884-1.663-1.213C371.228,255.359,370.306,255.369,370.197,255.71z"/>
								</g>
								<g>
									<path style="fill:#282828;" d="M384.755,250.549c-0.174,0.39-0.708,0.676-1.079,0.834c-0.175-0.222-0.396-0.36-0.641-0.372
										c-0.627-0.031-1.175,0.759-1.225,1.766s0.417,1.847,1.044,1.878c0.627,0.031,1.175-0.759,1.225-1.766
										c0.016-0.312-0.019-0.607-0.092-0.868C384.486,251.624,384.755,250.549,384.755,250.549z"/>
									<g>
										<path style="fill:#282828;" d="M372.321,251.026c0.119,0.323,0.533,0.58,0.823,0.727c0.153-0.169,0.337-0.269,0.535-0.265
											c0.505,0.008,0.904,0.672,0.891,1.483c-0.013,0.811-0.433,1.462-0.938,1.454c-0.505-0.008-0.904-0.672-0.891-1.483
											c0.004-0.251,0.047-0.487,0.12-0.692C372.48,251.904,372.321,251.026,372.321,251.026z"/>
										<path style="fill:#FFFFFF;" d="M373.633,253.059c0,0-0.515,0.165-0.989-0.027c-0.474-0.193-0.728-0.67-0.728-0.67
											s0.515-0.165,0.989,0.027C373.379,252.582,373.633,253.059,373.633,253.059z"/>
									</g>
									<path style="fill:#FFFFFF;" d="M382.963,252.962c0,0,0.625,0.247,1.228,0.047c0.604-0.2,0.957-0.771,0.957-0.771
										s-0.625-0.247-1.228-0.047C383.317,252.391,382.963,252.962,382.963,252.962z"/>
								</g>
							</g>
						</g>
					</g>
					<path style="fill:#131D42;" d="M374.262,245.055c-1.55,0.955-2.81,2.374-3.574,4.027c-1.9-3.49-0.635-8.145,2.314-10.808
						c2.949-2.662,7.199-3.528,11.147-3.084c2.769,0.312,5.551,1.263,7.575,3.178c2.234,2.113,3.343,5.243,3.388,8.317
						c0.045,3.074-1.095,6.496-2.467,9.248c0,0-0.404-1.596-1.395-2.106c-0.991-0.51-1.795,0.361-1.795,0.361
						c-0.402-0.893-0.99-6.419-0.99-6.419s-7.141-0.597-8.592-3.648l1.1,2.436C380.973,246.558,375.148,247.574,374.262,245.055z"/>
					<path style="fill:#131A70;" d="M366.599,252.739c0.073-0.183,0.152-0.36,0.226-0.537c1.747-4.093,3.93-8.23,7.603-10.745
						c1.143,1.203,2.548,2.158,4.089,2.774c-0.131-1.247-0.261-2.494-0.392-3.741c2.951,2.71,6.741,4.481,10.714,5.004
						c1.399,0.185,2.901,0.245,4.069,1.043c1.619,1.103,2.093,3.219,2.754,5.063c1.416,3.927,4.289,7.302,7.901,9.388
						c-0.042-0.293-0.114-0.58-0.21-0.863c-0.627-1.794-2.217-3.077-3.133-4.742c-0.867-1.568-1.073-3.358-1.28-5.154
						c-0.084-0.792-0.169-1.59-0.307-2.367c-0.475-2.667-1.685-5.173-3.377-7.277c-2.841-3.538-7.593-6.408-12.214-6.642
						c-4.867-0.245-10.769,3.115-13.231,7.203c-0.312,0.515-0.583,1.047-0.819,1.598c-0.9,2.07-1.331,4.342-1.75,6.574
						C367.029,250.462,366.814,251.597,366.599,252.739z"/>
					<path style="fill:#172D8A;" d="M368.994,242.746c1.917-1.789,3.959-3.438,6.104-4.944c0.732,0.979,1.464,1.952,2.196,2.931
						c0.052-0.905,0.102-1.816,0.152-2.727c2.259,1.786,4.981,2.991,7.822,3.454c-0.597-0.96-1.193-1.908-1.796-2.867
						c0.887,1.339,2.472,2.091,4.02,2.568c1.662,0.519,3.428,0.824,4.926,1.711c1.541,0.917,2.668,2.367,3.762,3.78
						c0.923,1.194,1.839,2.389,2.76,3.578c-0.084-0.792-0.169-1.59-0.307-2.367c-0.475-2.667-1.685-5.173-3.377-7.277
						c-2.841-3.538-7.593-6.408-12.214-6.642c-4.867-0.245-10.769,3.115-13.231,7.203
						C369.501,241.663,369.23,242.195,368.994,242.746z"/>
				</g>
				<g>
					<g>
						<path style="fill:#6FB1FE;" d="M294.116,318.155h-8.045c-0.659,0-1.194-0.535-1.194-1.194v-12.526h10.432v12.526
							C295.31,317.621,294.776,318.155,294.116,318.155z"/>
						<g>
							<path style="fill:#6FB1FE;" d="M296.374,316.552H292.3v-10.514h4.075c1.502,0,2.725,1.222,2.725,2.725v5.065
								C299.099,315.33,297.877,316.552,296.374,316.552z M293.857,314.995h2.517c0.644,0,1.168-0.524,1.168-1.168v-5.065
								c0-0.644-0.524-1.168-1.168-1.168h-2.517V314.995z"/>
						</g>
					</g>
				</g>
			</g>
			<path style="fill:#FFA07F;" d="M376.138,271.119c0,0,3.618,8.333,7.143,6.983c3.525-1.35,10.936-6.801,10.936-6.801l-3.255-2.109
				l-10.069,1.664C380.892,270.856,378.297,270.55,376.138,271.119z"/>
			<path style="fill:#FFFFFF;" d="M382.451,278.249c0,0,4.182,5.253,7.982,2.468c3.8-2.785,3.784-9.417,3.784-9.417L382.451,278.249
				z"/>
			<path style="fill:#FFFFFF;" d="M376.138,271.119c0,0-1.822,9.092,1.048,9.345c2.869,0.253,5.265-2.215,5.265-2.215
				S378.398,277.91,376.138,271.119z"/>
			<path style="fill:#AE115D;" d="M359.476,304.388c0,0,7.92-0.733,13.363,0.583c5.443,1.316,14.835,0.26,14.696-0.393
				c-0.139-0.653,1.913-15.168,4.009-18.037c2.096-2.869,7.396-7.257,7.396-7.257s-5.178,6.92-6.251,10.464
				c-1.073,3.544-3.82,18.312-4.303,17.848c-0.483-0.464-21.381-0.625-23.794-1.557C362.18,305.106,359.476,304.388,359.476,304.388
				z"/>
			<path style="fill:#AE115D;" d="M371.134,319.468c0,0,18.255-1.77,21.304-3.252c3.049-1.482,3.049-1.482,3.049-1.482
				c0.504,1.382-8.451,4.825-15.179,4.735C373.849,319.382,371.134,319.468,371.134,319.468z"/>
		</g>
	</g>
	<g>

			<rect x="128.379" y="152.936" transform="matrix(0.707 -0.7072 0.7072 0.707 -66.3596 155.5361)" style="fill:#FDE4D9;" width="52.311" height="9.841"/>

			<rect x="163.516" y="138.381" transform="matrix(0.7072 -0.707 0.707 0.7072 -51.8071 161.5074)" style="fill:#CCA190;" width="11.145" height="9.841"/>
		<path style="fill:#131A70;" d="M166.902,155.516l-10.771-10.77c-1.281-1.281-3.357-1.281-4.638,0l-36.62,36.619
			c-1.281,1.281-1.281,3.358,0,4.638l10.773,10.772c1.281,1.281,3.357,1.281,4.638,0l36.619-36.62
			C168.183,158.873,168.183,156.797,166.902,155.516z"/>
		<path style="fill:#131D42;" d="M166.902,155.516l-5.388-5.387l-41.255,41.259l5.387,5.387c1.281,1.281,3.358,1.281,4.638,0
			l36.618-36.62C168.183,158.873,168.183,156.797,166.902,155.516z"/>
		<path style="fill:#FDE4D9;" d="M169.55,142.84c-20.148-20.146-20.146-52.93,0.003-73.078c20.143-20.145,52.929-20.146,73.075,0
			c20.15,20.148,20.15,52.93,0,73.075C222.481,162.988,189.697,162.988,169.55,142.84z M234.826,77.565
			c-15.845-15.843-41.626-15.846-57.471,0c-15.846,15.845-15.846,41.63-0.002,57.473c15.845,15.844,41.628,15.844,57.474,0
			C250.672,119.191,250.669,93.409,234.826,77.565z"/>
		<path style="fill:#FDE4D9;" d="M234.916,104.039c0,6.485-5.258,11.743-11.743,11.743c-6.485,0-11.742-5.257-11.742-11.743
			c0-6.485,5.257-11.742,11.742-11.742C229.658,92.297,234.916,97.554,234.916,104.039z"/>
	</g>
	<g>
		<path style="fill:#E1BFB2;" d="M388.757,151.177H371.52v17.772c-9.538,0-17.259-7.729-17.259-17.259
			c0-9.531,7.721-17.259,17.259-17.259C380.878,134.431,388.493,141.88,388.757,151.177z"/>
		<path style="fill:#E1BFB2;" d="M375.623,172.291v-16.793h18.1C393.723,155.498,394.331,174.831,375.623,172.291z"/>
	</g>
</g>
</svg>
